# xmcd
#
# Track frame offsets: 
#        183
#        13458
#        25783
#        42808
#        56083
#        68470
#        84333
#        94895
#        109895
#        120770
#        136933
#        151883
#        163558
#        174370
#        188958
#        203558
#        217158
#        231095
#        242658
#        255583
#        271870
#        284533
#        294095
#        308258
#
# Disc length: 4325 seconds
#
# Revision: 2
# Processed by: cddbd v1.5.2PL0 Copyright (c) Steve Scherf et al.
# Submitted via: ExactAudioCopyFreeDBPlugin 1.0
#
DISCID=3d10e318
DTITLE=Lynn Anderson - 24 Great Country Songs
DYEAR=1993
DGENRE=Country
TTITLE0=Rose Garden
TTITLE1=Stand By Your Man
TTITLE2=Blue Bayou
TTITLE3=Top Of The World
TTITLE4=Listen To A Country Song
TTITLE5=Your Needed Me
TTITLE6=Heartbreak Hotel
TTITLE7=We`ve Only Just Begun
TTITLE8=So Many Ways To Love A Man
TTITLE9=The Devil Went Down To Georgia
TTITLE10=Could I Have This Dance
TTITLE11=Rodeo Cowboy
TTITLE12=Heaven`s Just A Sin Away
TTITLE13=Gone At Last
TTITLE14=Faithless Love
TTITLE15=Talking In Your Sleep
TTITLE16=Two Doors Down
TTITLE17=That`il Be The Day
TTITLE18=Danny`s Song
TTITLE19=When I Dream
TTITLE20=I Fall To Pieces
TTITLE21=Snowbird
TTITLE22=Cry
TTITLE23=I Was Country When Country Wasn`t Cool
EXTD=
EXTT0=
EXTT1=
EXTT2=
EXTT3=
EXTT4=
EXTT5=
EXTT6=
EXTT7=
EXTT8=
EXTT9=
EXTT10=
EXTT11=
EXTT12=
EXTT13=
EXTT14=
EXTT15=
EXTT16=
EXTT17=
EXTT18=
EXTT19=
EXTT20=
EXTT21=
EXTT22=
EXTT23=
PLAYORDER=
